<svg xmlns="http://www.w3.org/2000/svg" width="388.125" height="96.563"><defs><clipPath clipPathUnits="userSpaceOnUse" id="a"><path d="M28.267 66.704c-3.806-6.14-5.932-13.32-6.248-20.562 2.386 6.046 5.164 11.329 8.016 14.916 6.371 8.008 11.302 4.343 15.107-2.683 3.504-6.472 5.28-16.885 1.926-23.834-4.017-8.324-7.65-11.434-7.438-11.589 3.205-2.347 7.925-4.705 12.113-5.99 2.907 2.84 5.505 7.369 7.024 11.094a43.008 43.008 0 013.185 16.26c0 8.449-2.307 16.444-6.601 23.024-3.061 4.691-7.201 8.76-13.321 8.784h-.062c-6.459 0-10.283-3.902-13.701-9.42"/></clipPath><clipPath clipPathUnits="userSpaceOnUse" id="c"><path d="M75.338 17.158c-2.806-7.013-16.6-5.066-22.18-3.846-11.701 2.555-21.066 10.107-29.853 21.131.772-3.132 1.791-6.043 3.444-9.174A42.954 42.954 0 0143.858 6.975C51.175 2.75 59.252.751 67.098 1.181c5.592.305 11.187 1.856 14.267 7.144 3.271 5.613 1.804 10.891-1.276 16.628-3.415 6.367-8.569 11.798-14.683 15.693 8.848-9.359 11.988-18.348 9.932-23.488"/></clipPath><clipPath clipPathUnits="userSpaceOnUse" id="e"><path d="M20.449 41.646c-7.317-4.225-13.087-10.221-16.638-17.23C1.279 19.42-.176 13.801 2.864 8.488c3.226-5.639 8.53-7.008 15.039-7.21 7.221-.224 14.686 1.63 21.117 4.977-4.157 2.705-7.693 6.269-10.439 9.857-2.252-.729-4.981-1.176-7.312-1.281-8.744-.393-13.73 1.832-8.064 11.85 5.001 8.845 17.029 19.658 31.642 20.635a43.003 43.003 0 01-24.398-5.67"/></clipPath><clipPath clipPathUnits="userSpaceOnUse" id="g"><path d="M299.714 74.318v-7.775h9.884v2.966c0 1.326-.47 2.459-1.41 3.399-.941.94-2.074 1.41-3.388 1.41h-5.086z"/></clipPath><linearGradient x1="0" y1="0" x2="1" y2="0" gradientUnits="userSpaceOnUse" gradientTransform="scale(90.9389 -90.9389) rotate(88 .745 -.275)" spreadMethod="pad" id="b"><stop offset="0" stop-color="#ed1c24"/><stop offset=".51" stop-color="#f5821f"/><stop offset="1" stop-color="#ffcb03"/></linearGradient><linearGradient x1="0" y1="0" x2="1" y2="0" gradientUnits="userSpaceOnUse" gradientTransform="scale(326.51396 -326.51396) rotate(35 .45 -.566)" spreadMethod="pad" id="d"><stop offset="0" stop-color="#00aeef"/><stop offset=".5" stop-color="#0095da"/><stop offset="1" stop-color="#2e3092"/></linearGradient><linearGradient x1="0" y1="0" x2="1" y2="0" gradientUnits="userSpaceOnUse" gradientTransform="scale(-438.25763 438.25763) rotate(44 .152 -.671)" spreadMethod="pad" id="f"><stop offset="0" stop-color="#fff200"/><stop offset=".52" stop-color="#00a650"/><stop offset="1" stop-color="#00aeef"/></linearGradient><radialGradient fx="0" fy="0" cx="0" cy="0" r="1" gradientUnits="userSpaceOnUse" gradientTransform="matrix(5.65699 0 0 -5.65699 304.656 70.43)" spreadMethod="pad" id="h"><stop offset="0" stop-color="#ffcb03"/><stop offset="1" stop-color="#f5821f"/></radialGradient></defs><g clip-path="url(#a)" transform="matrix(.91708 0 0 -.91708 .605 81.457)"><path d="M28.267 66.704c-3.806-6.14-5.932-13.32-6.248-20.562 2.386 6.046 5.164 11.329 8.016 14.916 6.371 8.008 11.302 4.343 15.107-2.683 3.504-6.472 5.28-16.885 1.926-23.834-4.017-8.324-7.65-11.434-7.438-11.589 3.205-2.347 7.925-4.705 12.113-5.99 2.907 2.84 5.505 7.369 7.024 11.094a43.008 43.008 0 013.185 16.26c0 8.449-2.307 16.444-6.601 23.024-3.061 4.691-7.201 8.76-13.321 8.784h-.062c-6.459 0-10.283-3.902-13.701-9.42" fill="url(#b)"/></g><g clip-path="url(#c)" transform="matrix(.91708 0 0 -.91708 .605 81.457)"><path d="M75.338 17.158c-2.806-7.013-16.6-5.066-22.18-3.846-11.701 2.555-21.066 10.107-29.853 21.131.772-3.132 1.791-6.043 3.444-9.174A42.954 42.954 0 0143.858 6.975C51.175 2.75 59.252.751 67.098 1.181c5.592.305 11.187 1.856 14.267 7.144 3.271 5.613 1.804 10.891-1.276 16.628-3.415 6.367-8.569 11.798-14.683 15.693 8.848-9.359 11.988-18.348 9.932-23.488" fill="url(#d)"/></g><g clip-path="url(#e)" transform="matrix(.91708 0 0 -.91708 .605 81.457)"><path d="M20.449 41.646c-7.317-4.225-13.087-10.221-16.638-17.23C1.279 19.42-.176 13.801 2.864 8.488c3.226-5.639 8.53-7.008 15.039-7.21 7.221-.224 14.686 1.63 21.117 4.977-4.157 2.705-7.693 6.269-10.439 9.857-2.252-.729-4.981-1.176-7.312-1.281-8.744-.393-13.73 1.832-8.064 11.85 5.001 8.845 17.029 19.658 31.642 20.635a43.003 43.003 0 01-24.398-5.67" fill="url(#f)"/></g><path d="M104.885 67.023h16.485c3.67 0 6.484-.72 8.445-2.162 1.826-1.306 2.748-3.534 2.748-6.668 0-3.132-.922-5.428-2.748-6.869-1.71-1.307-4.574-1.96-8.645-1.96h-16.285v17.659zm0-29.236h15.9c3.4 0 5.897-.586 7.455-1.775 1.575-1.173 2.362-3 2.362-5.496 0-2.48-.787-4.322-2.362-5.495-1.308-1.055-3.854-1.575-7.657-1.575h-15.698v14.34zM91.532 79.204V18.738c0-1.96.687-3.636 2.06-5.009 1.374-1.374 3.05-2.061 5.01-2.061h24.746c6.935 0 12.23 1.441 15.899 4.322 3.669 3.133 5.495 7.39 5.495 12.767 0 3.402-.72 6.283-2.161 8.628-1.441 2.228-3.468 4.004-6.08 5.31 3.399 1.442 6.013 3.47 7.84 6.083 1.69 2.48 2.546 5.764 2.546 9.818 0 6.534-2.095 11.643-6.283 15.312-4.322 3.536-10.404 5.296-18.261 5.296H91.532zM184.636 77.042a24.362 24.362 0 01-8.729 2.664c-3.082.318-5.797.485-8.16.485-4.707 0-8.828-1.273-12.364-3.836-3.534-2.548-5.294-6.769-5.294-12.666 0-5.495 1.608-9.416 4.809-11.778 3.2-2.346 7.304-3.92 12.264-4.709.654 0 1.44-.1 2.362-.301.921-.184 1.96-.352 3.132-.485 5.764-.788 8.646-2.48 8.646-5.11 0-1.96-1.022-3.234-3.05-3.82-2.026-.587-3.886-.888-5.596-.888-1.826 0-3.467.268-4.909.788-1.44.518-2.48 1.49-3.132 2.931h-13.151c.518-4.054 2.344-7.389 5.495-10.018 3.535-3 8.577-4.508 15.11-4.508 7.34 0 12.835 1.24 16.488 3.736 3.802 2.615 5.695 6.284 5.695 10.991v17.876c0 5.228-.954 9.333-2.847 12.264-1.893 2.95-4.156 5.077-6.77 6.384M181.504 52.9c-1.826.921-4.39 1.758-7.657 2.546-3.016.653-4.506.988-4.506.988-2.363.653-4.072 1.508-5.11 2.548-.922 1.44-1.375 2.88-1.375 4.32 0 1.962.587 3.537 1.76 4.71 1.19 1.055 2.88 1.574 5.11 1.574 3.67 0 6.55-1.055 8.645-3.15 2.095-2.094 3.133-4.958 3.133-8.627v-4.91zM197.841 79.203V68.798l28.08-31.01h-19.836c-1.827 0-3.401-.62-4.71-1.86-1.306-1.257-1.96-2.798-1.96-4.624V26.98h42.791v11.191L214.528 67.81h28.666v11.393h-45.353zM280.34 77.042a24.362 24.362 0 01-8.728 2.664c-3.082.318-5.797.485-8.16.485-4.707 0-8.828-1.273-12.364-3.836-3.534-2.548-5.294-6.769-5.294-12.666 0-5.495 1.608-9.416 4.81-11.778 3.199-2.346 7.303-3.92 12.263-4.709.654 0 1.44-.1 2.362-.301.921-.184 1.96-.352 3.133-.485 5.763-.788 8.645-2.48 8.645-5.11 0-1.96-1.022-3.234-3.05-3.82-2.026-.587-3.886-.888-5.595-.888-1.827 0-3.468.268-4.91.788-1.44.518-2.479 1.49-3.132 2.931h-13.151c.518-4.054 2.344-7.389 5.495-10.018 3.535-3 8.577-4.508 15.111-4.508 7.339 0 12.834 1.24 16.487 3.736 3.802 2.615 5.695 6.284 5.695 10.991v17.876c0 5.228-.954 9.333-2.847 12.264-1.893 2.95-4.156 5.077-6.77 6.384M277.209 52.9c-1.826.921-4.39 1.758-7.657 2.546-3.016.653-4.506.988-4.506.988-2.362.653-4.072 1.508-5.11 2.548-.922 1.44-1.375 2.88-1.375 4.32 0 1.962.588 3.537 1.76 4.71 1.19 1.055 2.88 1.574 5.11 1.574 3.67 0 6.55-1.055 8.645-3.15 2.095-2.094 3.133-4.958 3.133-8.627v-4.91zM326.92 77.042a24.362 24.362 0 01-8.73 2.664c-3.082.318-5.796.485-8.16.485-4.707 0-8.828-1.273-12.363-3.836-3.535-2.548-5.294-6.769-5.294-12.666 0-5.495 1.608-9.416 4.809-11.778 3.199-2.346 7.303-3.92 12.264-4.709.653 0 1.44-.1 2.361-.301.922-.184 1.96-.352 3.133-.485 5.764-.788 8.645-2.48 8.645-5.11 0-1.96-1.022-3.234-3.05-3.82-2.026-.587-3.885-.888-5.595-.888-1.826 0-3.468.268-4.91.788-1.439.518-2.479 1.49-3.132 2.931h-13.15c.518-4.054 2.344-7.389 5.495-10.018 3.534-3 8.577-4.508 15.11-4.508 7.339 0 12.835 1.24 16.487 3.736 3.803 2.615 5.696 6.284 5.696 10.991v17.876c0 5.228-.955 9.333-2.848 12.264-1.893 2.95-4.156 5.077-6.769 6.384M323.787 52.9c-1.827.921-4.39 1.758-7.657 2.546-3.016.653-4.506.988-4.506.988-2.363.653-4.073 1.508-5.11 2.548-.922 1.44-1.375 2.88-1.375 4.32 0 1.962.586 3.537 1.76 4.71 1.189 1.055 2.88 1.574 5.11 1.574 3.669 0 6.55-1.055 8.645-3.15 2.094-2.094 3.133-4.958 3.133-8.627v-4.91zM339.646 79.203V53.871c0-5.092.753-9.383 2.261-12.85 1.508-3.469 3.57-6.25 6.183-8.344 2.48-1.96 5.395-3.401 8.73-4.323 3.332-.921 6.767-1.373 10.303-1.373h1.976v13.94h-4.523c-3.802 0-6.618.92-8.445 2.747-1.826 1.826-2.747 4.707-2.747 8.645v26.89h-13.738z" fill="#fff"/><g><g clip-path="url(#g)" transform="matrix(1.38988 0 0 -1.38988 -43.306 114.96)"><path d="M299.714 74.318v-7.775h9.884v2.966c0 1.326-.47 2.459-1.41 3.399-.941.94-2.074 1.41-3.388 1.41h-5.086z" fill="url(#h)"/></g></g><g fill="#fff"><path d="M373.26 26.98h7.068c1.828 0 3.403.654 4.71 1.96 1.306 1.307 1.96 2.881 1.96 4.709v45.553H373.26V26.98z"/></g></svg>